<mxfile host="app.diagrams.net" agent="Mozilla/5.0 (Windows NT 10.0; Win64; x64) AppleWebKit/537.36 (KHTML, like Gecko) Chrome/127.0.0.0 Safari/537.36 Edg/127.0.0.0" version="24.7.7">
  <diagram name="Page-1" id="tKCnqR2jz6Y4fJyDxTYc">
    <mxGraphModel dx="1517" dy="723" grid="1" gridSize="10" guides="1" tooltips="1" connect="1" arrows="1" fold="1" page="1" pageScale="1" pageWidth="850" pageHeight="1100" math="0" shadow="0">
      <root>
        <mxCell id="0" />
        <mxCell id="1" parent="0" />
        <mxCell id="t3UBMreBZrIzyY87uLqe-19" style="edgeStyle=orthogonalEdgeStyle;rounded=0;orthogonalLoop=1;jettySize=auto;html=1;exitX=0.5;exitY=1;exitDx=0;exitDy=0;entryX=0.25;entryY=0;entryDx=0;entryDy=0;labelBackgroundColor=none;strokeColor=#E07A5F;fontColor=default;" edge="1" parent="1" source="t3UBMreBZrIzyY87uLqe-1" target="t3UBMreBZrIzyY87uLqe-9">
          <mxGeometry relative="1" as="geometry" />
        </mxCell>
        <mxCell id="t3UBMreBZrIzyY87uLqe-1" value="Container" style="swimlane;labelBackgroundColor=none;fillColor=#F2CC8F;strokeColor=#E07A5F;fontColor=#393C56;" vertex="1" parent="1">
          <mxGeometry x="280" y="150" width="200" height="200" as="geometry" />
        </mxCell>
        <mxCell id="t3UBMreBZrIzyY87uLqe-18" style="edgeStyle=orthogonalEdgeStyle;rounded=0;orthogonalLoop=1;jettySize=auto;html=1;exitX=0.5;exitY=1;exitDx=0;exitDy=0;entryX=0.75;entryY=0;entryDx=0;entryDy=0;labelBackgroundColor=none;strokeColor=#E07A5F;fontColor=default;" edge="1" parent="1" source="t3UBMreBZrIzyY87uLqe-3" target="t3UBMreBZrIzyY87uLqe-9">
          <mxGeometry relative="1" as="geometry" />
        </mxCell>
        <mxCell id="t3UBMreBZrIzyY87uLqe-3" value="Container" style="swimlane;labelBackgroundColor=none;fillColor=#F2CC8F;strokeColor=#E07A5F;fontColor=#393C56;" vertex="1" parent="1">
          <mxGeometry x="1040" y="150" width="200" height="200" as="geometry" />
        </mxCell>
        <mxCell id="t3UBMreBZrIzyY87uLqe-17" style="edgeStyle=orthogonalEdgeStyle;rounded=0;orthogonalLoop=1;jettySize=auto;html=1;exitX=0.5;exitY=1;exitDx=0;exitDy=0;entryX=0.5;entryY=0;entryDx=0;entryDy=0;labelBackgroundColor=none;strokeColor=#E07A5F;fontColor=default;" edge="1" parent="1" source="t3UBMreBZrIzyY87uLqe-4" target="t3UBMreBZrIzyY87uLqe-9">
          <mxGeometry relative="1" as="geometry" />
        </mxCell>
        <mxCell id="t3UBMreBZrIzyY87uLqe-4" value="Container" style="swimlane;labelBackgroundColor=none;fillColor=#F2CC8F;strokeColor=#E07A5F;fontColor=#393C56;" vertex="1" parent="1">
          <mxGeometry x="660" y="150" width="200" height="200" as="geometry" />
        </mxCell>
        <mxCell id="t3UBMreBZrIzyY87uLqe-24" style="edgeStyle=elbowEdgeStyle;rounded=0;orthogonalLoop=1;jettySize=auto;html=1;startArrow=none;endArrow=none;exitX=1;exitY=0.25;exitDx=0;exitDy=0;entryX=0.5;entryY=0;entryDx=0;entryDy=0;" edge="1" parent="1" source="t3UBMreBZrIzyY87uLqe-9" target="t3UBMreBZrIzyY87uLqe-20">
          <mxGeometry relative="1" as="geometry" />
        </mxCell>
        <UserObject label="Master Server" treeRoot="1" id="t3UBMreBZrIzyY87uLqe-9">
          <mxCell style="whiteSpace=wrap;html=1;align=center;treeFolding=1;treeMoving=1;newEdgeStyle={&quot;edgeStyle&quot;:&quot;elbowEdgeStyle&quot;,&quot;startArrow&quot;:&quot;none&quot;,&quot;endArrow&quot;:&quot;none&quot;};labelBackgroundColor=none;fillColor=#F2CC8F;strokeColor=#E07A5F;fontColor=#393C56;" vertex="1" parent="1">
            <mxGeometry x="700" y="620" width="120" height="60" as="geometry" />
          </mxCell>
        </UserObject>
        <mxCell id="t3UBMreBZrIzyY87uLqe-25" style="edgeStyle=orthogonalEdgeStyle;rounded=0;orthogonalLoop=1;jettySize=auto;html=1;exitX=0;exitY=0.7;exitDx=0;exitDy=0;" edge="1" parent="1" source="t3UBMreBZrIzyY87uLqe-20" target="t3UBMreBZrIzyY87uLqe-9">
          <mxGeometry relative="1" as="geometry" />
        </mxCell>
        <mxCell id="t3UBMreBZrIzyY87uLqe-20" value="sqlite3" style="shape=datastore;whiteSpace=wrap;html=1;" vertex="1" parent="1">
          <mxGeometry x="970" y="620" width="60" height="60" as="geometry" />
        </mxCell>
        <mxCell id="t3UBMreBZrIzyY87uLqe-32" value="tools" style="swimlane;fontStyle=0;childLayout=stackLayout;horizontal=1;startSize=30;horizontalStack=0;resizeParent=1;resizeParentMax=0;resizeLast=0;collapsible=1;marginBottom=0;whiteSpace=wrap;html=1;" vertex="1" parent="1">
          <mxGeometry x="1560" y="330" width="310" height="120" as="geometry" />
        </mxCell>
        <mxCell id="t3UBMreBZrIzyY87uLqe-33" value="subfinder" style="text;strokeColor=none;fillColor=none;align=left;verticalAlign=middle;spacingLeft=4;spacingRight=4;overflow=hidden;points=[[0,0.5],[1,0.5]];portConstraint=eastwest;rotatable=0;whiteSpace=wrap;html=1;" vertex="1" parent="t3UBMreBZrIzyY87uLqe-32">
          <mxGeometry y="30" width="310" height="30" as="geometry" />
        </mxCell>
        <mxCell id="t3UBMreBZrIzyY87uLqe-34" value="waybackurls" style="text;strokeColor=none;fillColor=none;align=left;verticalAlign=middle;spacingLeft=4;spacingRight=4;overflow=hidden;points=[[0,0.5],[1,0.5]];portConstraint=eastwest;rotatable=0;whiteSpace=wrap;html=1;" vertex="1" parent="t3UBMreBZrIzyY87uLqe-32">
          <mxGeometry y="60" width="310" height="30" as="geometry" />
        </mxCell>
        <mxCell id="t3UBMreBZrIzyY87uLqe-35" value="nuclei" style="text;strokeColor=none;fillColor=none;align=left;verticalAlign=middle;spacingLeft=4;spacingRight=4;overflow=hidden;points=[[0,0.5],[1,0.5]];portConstraint=eastwest;rotatable=0;whiteSpace=wrap;html=1;" vertex="1" parent="t3UBMreBZrIzyY87uLqe-32">
          <mxGeometry y="90" width="310" height="30" as="geometry" />
        </mxCell>
      </root>
    </mxGraphModel>
  </diagram>
</mxfile>
